# This file uses centimeters as units for non-parametric coordinates.

mtllib body-1.mtl
g default
v -1.584781 -0.792408 1.372454
v -1.120610 -0.970496 1.680916
v -1.120610 -0.000000 1.940958
v -1.584781 -0.000000 1.584781
v -1.120610 0.970461 1.680916
v -1.584781 0.792373 1.372454
v -1.120610 1.680881 0.970497
v -0.580081 -1.082431 1.874839
v -0.580081 -0.000000 2.164862
v -0.580081 1.082396 1.874839
v -0.580081 1.874804 1.082431
v -0.580081 2.164827 0.000000
v 0.000000 -1.120610 1.940958
v 0.000000 -0.000000 2.241221
v 0.000000 1.120575 1.940958
v 0.000000 1.940923 1.120610
v 0.000000 2.241221 0.000000
v 0.000000 1.940923 -1.120610
v 1.120610 0.970461 -1.680916
v 0.580081 1.082396 -1.874804
v 0.580081 1.874804 -1.082431
v 0.580081 2.164827 0.000000
v 0.580081 1.874804 1.082431
v 0.580081 1.082396 1.874839
v 0.580081 -0.000000 2.164862
v 1.120610 1.680881 0.970497
v 1.120610 1.940923 0.000000
v 1.120610 1.680881 -0.970461
v 1.584781 0.792373 -1.372454
v 1.584781 -0.000000 -1.584781
v 1.940958 -0.000000 -1.120610
v 1.940958 -0.560305 -0.970461
v 2.164862 -0.000000 -0.580081
v 2.164862 -0.290058 -0.502350
v 1.940958 0.560305 -0.970461
v 1.584781 1.372454 -0.792373
v 2.164862 -0.502385 -0.290023
v 2.241221 -0.000000 0.000000
v 2.164862 0.290023 -0.502350
v 1.940958 0.970461 -0.560305
v 1.584781 1.584781 0.000000
v 1.584781 1.372454 0.792408
v 1.940958 1.120575 0.000000
v 1.940958 0.970461 0.560305
v 2.164862 0.580046 0.000000
v 2.164862 0.502350 0.290058
v 2.164862 0.502350 -0.290023
v 2.164862 -0.000000 0.580081
v 2.164862 -0.290058 0.502350
v 2.164862 0.290023 0.502350
v 1.940958 0.560305 0.970497
v 1.584781 0.792373 1.372454
v 1.120610 0.970461 1.680916
v 1.940958 -0.000000 1.120610
v 1.584781 -0.000000 1.584781
v 1.120610 -0.000000 1.940958
v 0.580081 -1.082431 1.874839
v 1.120610 -0.970496 1.680916
v 1.584781 -0.792408 1.372454
v 1.940958 -0.560305 0.970497
v 0.000000 -1.940958 1.120610
v 0.580081 -1.874839 1.082431
v 1.120610 -1.680915 0.970497
v 1.584781 -1.372489 0.792408
v 1.940958 -0.970496 0.560305
v 2.164862 -0.502385 0.290058
v -0.580081 -1.874839 1.082431
v -0.580081 -2.164862 0.000000
v 0.000000 -2.241221 0.000000
v 0.580081 -2.164862 0.000000
v 1.120610 -1.940958 0.000000
v 1.584781 -1.584781 0.000000
v 1.940958 -1.120610 0.000000
v 0.000000 -1.940958 -1.120610
v 0.580081 -1.874839 -1.082431
v 0.000000 -1.120610 -1.940958
v 1.120610 -1.680915 -0.970461
v 0.580081 -1.082431 -1.874804
v 0.000000 -0.000000 -2.241221
v 1.584781 -1.372489 -0.792373
v 1.120610 -0.970496 -1.680916
v 0.580081 -0.000000 -2.164862
v 0.000000 1.120611 -1.940958
v 2.164862 -0.580081 0.000000
v 1.940958 -0.970496 -0.560305
v 1.584781 -0.792408 -1.372454
v 1.120610 -0.000000 -1.940958
v -2.164862 0.290023 -0.502350
v -1.940958 0.560305 -0.970461
v -1.940958 -0.000000 -1.120610
v -2.164862 -0.000000 -0.580081
v -1.584781 0.792373 -1.372454
v -1.940958 0.970461 -0.560305
v -1.584781 -0.000000 -1.584781
v -1.584781 -0.792408 -1.372454
v -1.940958 -0.560305 -0.970461
v -2.164862 -0.290058 -0.502350
v -2.241221 -0.000000 0.000000
v -2.164862 0.502350 -0.290023
v -2.164862 0.580046 0.000000
v -2.164862 -0.580081 0.000000
v -2.164862 -0.502385 0.290058
v -2.164862 -0.502385 -0.290023
v -1.940958 -0.970496 -0.560305
v -1.584781 -1.372489 -0.792373
v -1.120610 -1.680915 -0.970461
v -1.120610 -0.970496 -1.680916
v -1.120610 -1.940958 0.000000
v -1.584781 -1.584781 0.000000
v -1.940958 -1.120610 0.000000
v -0.580081 -1.874839 -1.082431
v -1.120610 -1.680915 0.970497
v -1.584781 -1.372489 0.792408
v -1.940958 -0.970496 0.560305
v -1.940958 -0.560305 0.970497
v -2.164862 -0.290058 0.502350
v -1.940958 -0.000000 1.120610
v -2.164862 -0.000000 0.580081
v -1.940958 0.560305 0.970497
v -0.580081 1.874804 -1.082431
v -1.120610 1.680881 -0.970461
v -1.120610 1.940923 0.000000
v -1.584781 1.584781 0.000000
v -1.584781 1.372454 0.792408
v -1.940958 0.970461 0.560305
v -2.164862 0.290023 0.502350
v -1.120610 -0.000000 -1.940958
v -1.120610 0.970461 -1.680916
v -1.584781 1.372454 -0.792373
v -1.940958 1.120611 0.000000
v -2.164862 0.502350 0.290058
v -0.580081 1.082396 -1.874804
v -0.580081 -0.000000 -2.164862
v -0.580081 -1.082431 -1.874804
vt 0.795400 0.414100
vt 0.803700 0.416000
vt 0.805200 0.404100
vt 0.795900 0.404100
vt 0.803700 0.391800
vt 0.795400 0.393800
vt 0.795900 0.376700
vt 0.813500 0.417500
vt 0.814000 0.404100
vt 0.813500 0.390400
vt 0.809100 0.372300
vt 0.805200 0.347200
vt 0.822800 0.418000
vt 0.822800 0.404100
vt 0.822800 0.389900
vt 0.822800 0.369900
vt 0.822800 0.329600
vt 0.752000 0.309800
vt 0.918000 0.366900
vt 0.932600 0.353500
vt 0.894000 0.338400
vt 0.893600 0.310100
vt 0.840800 0.347700
vt 0.836400 0.372300
vt 0.832500 0.390400
vt 0.831500 0.404100
vt 0.849600 0.376700
vt 0.857400 0.362300
vt 0.894000 0.358200
vt 0.904300 0.376200
vt 0.913600 0.404100
vt 0.904300 0.403800
vt 0.895000 0.418700
vt 0.897000 0.403800
vt 0.893600 0.408400
vt 0.895000 0.389400
vt 0.891600 0.367900
vt 0.886200 0.411900
vt 0.885300 0.404100
vt 0.893600 0.399400
vt 0.881800 0.380600
vt 0.874000 0.371600
vt 0.859900 0.381100
vt 0.875000 0.382300
vt 0.862800 0.389400
vt 0.880900 0.396000
vt 0.876000 0.398200
vt 0.886200 0.396200
vt 0.875500 0.404100
vt 0.875000 0.406700
vt 0.875000 0.401100
vt 0.860400 0.397900
vt 0.850100 0.394000
vt 0.841800 0.392100
vt 0.862300 0.404100
vt 0.850100 0.404100
vt 0.840800 0.404100
vt 0.832500 0.417500
vt 0.841800 0.416000
vt 0.850100 0.414100
vt 0.860400 0.410200
vt 0.822800 0.438000
vt 0.836400 0.435500
vt 0.849600 0.431200
vt 0.860400 0.426800
vt 0.862800 0.418700
vt 0.876000 0.409900
vt 0.809100 0.435500
vt 0.804700 0.460400
vt 0.822800 0.478300
vt 0.840800 0.460700
vt 0.856900 0.445800
vt 0.873000 0.436300
vt 0.875000 0.425500
vt 0.893600 0.498000
vt 0.894000 0.469500
vt 0.951700 0.473400
vt 0.894000 0.449700
vt 0.932600 0.454300
vt 0.982900 0.404100
vt 0.891600 0.439900
vt 0.918000 0.441200
vt 0.952600 0.404100
vt 0.952100 0.334500
vt 0.880900 0.411900
vt 0.881800 0.427500
vt 0.904300 0.431900
vt 0.930700 0.404100
vt 0.752000 0.399700
vt 0.750500 0.389200
vt 0.741700 0.404100
vt 0.748500 0.404100
vt 0.741200 0.376000
vt 0.763700 0.380400
vt 0.731900 0.404100
vt 0.741200 0.431600
vt 0.750500 0.418700
vt 0.752000 0.408400
vt 0.760300 0.404100
vt 0.759300 0.396000
vt 0.764600 0.396000
vt 0.764600 0.411900
vt 0.769500 0.409700
vt 0.759300 0.411600
vt 0.763700 0.427500
vt 0.753900 0.439900
vt 0.751500 0.449700
vt 0.727500 0.441200
vt 0.788600 0.445800
vt 0.772500 0.436300
vt 0.770500 0.425500
vt 0.751500 0.469500
vt 0.795900 0.431200
vt 0.785600 0.426800
vt 0.782700 0.418700
vt 0.785200 0.410200
vt 0.770500 0.406700
vt 0.783700 0.404100
vt 0.770500 0.404100
vt 0.785600 0.397700
vt 0.752000 0.338600
vt 0.751500 0.358400
vt 0.789100 0.362100
vt 0.772500 0.371800
vt 0.785200 0.381100
vt 0.782700 0.388900
vt 0.770500 0.401100
vt 0.714800 0.404100
vt 0.727500 0.366900
vt 0.753400 0.368200
vt 0.770000 0.382300
vt 0.769500 0.397900
vt 0.712900 0.353500
vt 0.692900 0.403800
vt 0.712900 0.454300
vt 0.752000 0.498000
vt 0.693400 0.473600
vt 0.662600 0.403800
vt 0.693800 0.334200
vn -0.689085 -0.349959 0.634579
vn -0.484970 -0.427780 0.762764
vn -0.484969 0.010904 0.874463
vn -0.689084 0.014209 0.724542
vn -0.484971 0.446684 0.751849
vn -0.689078 0.374574 0.620375
vn -0.484958 0.762766 0.427789
vn -0.250318 -0.478985 0.841376
vn -0.250321 0.005867 0.968145
vn -0.250317 0.489156 0.835505
vn -0.250322 0.841373 0.478989
vn -0.250347 0.968139 -0.005873
vn 0.000001 -0.500000 0.866025
vn 0.000000 -0.000000 1.000000
vn -0.000001 0.500006 0.866022
vn 0.000005 0.866021 0.500007
vn 0.000000 1.000000 -0.000000
vn 0.000001 0.866024 -0.500002
vn 0.484955 0.446689 -0.751856
vn 0.250333 0.489157 -0.835499
vn 0.250330 0.841368 -0.478994
vn 0.250347 0.968138 0.005873
vn 0.250317 0.835509 0.489149
vn 0.250318 0.478992 0.841372
vn 0.250322 -0.005867 0.968145
vn 0.484954 0.751859 0.446684
vn 0.484949 0.874474 0.010905
vn 0.484969 0.762765 -0.427780
vn 0.689085 0.374583 -0.620362
vn 0.689088 0.014205 -0.724539
vn 0.849717 0.014726 -0.527033
vn 0.849721 -0.250752 -0.463786
vn 0.956440 0.012241 -0.291671
vn 0.956441 -0.135239 -0.258711
vn 0.849717 0.276279 -0.449056
vn 0.689071 0.634584 -0.349977
vn 0.956441 -0.246471 -0.156434
vn 1.000000 0.000001 -0.000001
vn 0.956442 0.156441 -0.246465
vn 0.849720 0.463785 -0.250759
vn 0.689078 0.724548 0.014209
vn 0.689082 0.620370 0.374576
vn 0.849726 0.527019 0.014732
vn 0.849719 0.449064 0.276259
vn 0.956440 0.291671 0.012241
vn 0.956439 0.246482 0.156431
vn 0.956440 0.258719 -0.135229
vn 0.956441 -0.012235 0.291668
vn 0.956443 -0.156430 0.246470
vn 0.956444 0.135220 0.258709
vn 0.849713 0.250772 0.463791
vn 0.689081 0.349967 0.634578
vn 0.484969 0.427786 0.762760
vn 0.849718 -0.014730 0.527031
vn 0.689084 -0.014208 0.724542
vn 0.484969 -0.010904 0.874463
vn 0.250317 -0.489149 0.835509
vn 0.484971 -0.446677 0.751853
vn 0.689084 -0.374567 0.620373
vn 0.849717 -0.276259 0.449068
vn -0.000001 -0.866026 0.500000
vn 0.250318 -0.841376 0.478985
vn 0.484958 -0.762766 0.427789
vn 0.689078 -0.634582 0.349968
vn 0.849720 -0.463787 0.250752
vn 0.956441 -0.258715 0.135233
vn -0.250317 -0.835509 0.489149
vn -0.250322 -0.968145 0.005867
vn -0.000000 -1.000000 0.000000
vn 0.250321 -0.968145 -0.005867
vn 0.484965 -0.874466 -0.010909
vn 0.689085 -0.724541 -0.014212
vn 0.849717 -0.527033 -0.014726
vn -0.000002 -0.866024 -0.500002
vn 0.250331 -0.835500 -0.489157
vn -0.000001 -0.499995 -0.866028
vn 0.484967 -0.751854 -0.446679
vn 0.250325 -0.478992 -0.841371
vn -0.000000 -0.000000 -1.000000
vn 0.689074 -0.620384 -0.374567
vn 0.484951 -0.427800 -0.762765
vn 0.250322 0.005866 -0.968145
vn 0.000001 0.500010 -0.866020
vn 0.956442 -0.291665 -0.012241
vn 0.849718 -0.449057 -0.276272
vn 0.689091 -0.349963 -0.634570
vn 0.484965 0.010911 -0.874466
vn -0.956441 0.135241 -0.258710
vn -0.849719 0.250767 -0.463782
vn -0.849717 -0.014726 -0.527033
vn -0.956441 -0.012241 -0.291671
vn -0.689087 0.349971 -0.634570
vn -0.849719 0.449054 -0.276275
vn -0.689088 -0.014205 -0.724539
vn -0.689091 -0.374577 -0.620360
vn -0.849719 -0.276268 -0.449058
vn -0.956441 -0.156435 -0.246473
vn -1.000000 0.000001 -0.000001
vn -0.956441 0.246476 -0.156431
vn -0.956443 0.291663 -0.012247
vn -0.956442 -0.291665 0.012241
vn -0.956440 -0.246477 0.156434
vn -0.956442 -0.258715 -0.135227
vn -0.849716 -0.463786 -0.250767
vn -0.689076 -0.634583 -0.349970
vn -0.484969 -0.762765 -0.427780
vn -0.484955 -0.446682 -0.751860
vn -0.484965 -0.874466 0.010909
vn -0.689085 -0.724541 0.014212
vn -0.849718 -0.527032 0.014725
vn -0.250325 -0.841371 -0.478990
vn -0.484958 -0.751860 0.446680
vn -0.689079 -0.620378 0.374568
vn -0.849720 -0.449058 0.276265
vn -0.849715 -0.250757 0.463795
vn -0.956444 -0.135218 0.258710
vn -0.849718 0.014731 0.527032
vn -0.956441 0.012235 0.291668
vn -0.849714 0.276270 0.449066
vn -0.250335 0.835502 -0.489152
vn -0.484963 0.751854 -0.446683
vn -0.484949 0.874474 -0.010905
vn -0.689069 0.724556 -0.014206
vn -0.689073 0.634584 0.349975
vn -0.849723 0.463783 0.250752
vn -0.956443 0.156436 0.246462
vn -0.484965 -0.010911 -0.874465
vn -0.484951 0.427806 -0.762761
vn -0.689074 0.620377 -0.374579
vn -0.849721 0.527027 -0.014727
vn -0.956440 0.258715 0.135240
vn -0.250338 0.478990 -0.841368
vn -0.250321 -0.005866 -0.968145
vn -0.250321 -0.489153 -0.835505
s 1
g polySurface234 body
usemtl lambert4SG
f 1/1/1 2/2/2 3/3/3
f 3/3/3 4/4/4 1/1/1
f 4/4/4 3/3/3 5/5/5
f 5/5/5 6/6/6 4/4/4
f 6/6/6 5/5/5 7/7/7
f 2/2/2 8/8/8 9/9/9
f 9/9/9 3/3/3 2/2/2
f 3/3/3 9/9/9 10/10/10
f 10/10/10 5/5/5 3/3/3
f 5/5/5 10/10/10 11/11/11
f 11/11/11 7/7/7 5/5/5
f 7/7/7 11/11/11 12/12/12
f 8/8/8 13/13/13 14/14/14
f 14/14/14 9/9/9 8/8/8
f 9/9/9 14/14/14 15/15/15
f 15/15/15 10/10/10 9/9/9
f 10/10/10 15/15/15 16/16/16
f 16/16/16 11/11/11 10/10/10
f 11/11/11 16/16/16 17/17/17
f 17/17/17 12/12/12 11/11/11
f 12/12/12 17/17/17 18/18/18
f 19/19/19 20/20/20 21/21/21
f 18/22/18 21/21/21 20/20/20
f 21/21/21 18/22/18 17/17/17
f 17/17/17 22/23/22 21/21/21
f 22/23/22 17/17/17 16/16/16
f 16/16/16 23/24/23 22/23/22
f 23/24/23 16/16/16 15/15/15
f 15/15/15 24/25/24 23/24/23
f 24/25/24 15/15/15 14/14/14
f 14/14/14 25/26/25 24/25/24
f 26/27/26 23/24/23 24/25/24
f 23/24/23 26/27/26 27/28/27
f 27/28/27 22/23/22 23/24/23
f 22/23/22 27/28/27 28/29/28
f 28/29/28 21/21/21 22/23/22
f 21/21/21 28/29/28 19/19/19
f 29/30/29 19/19/19 28/29/28
f 19/19/19 29/30/29 30/31/30
f 31/32/31 30/31/30 29/30/29
f 30/31/30 31/32/31 32/33/32
f 31/32/31 33/34/33 34/35/34
f 33/34/33 31/32/31 35/36/35
f 29/30/29 35/36/35 31/32/31
f 35/36/35 29/30/29 36/37/36
f 28/29/28 36/37/36 29/30/29
f 36/37/36 28/29/28 27/28/27
f 34/35/34 32/33/32 31/32/31
f 32/33/32 34/35/34 37/38/37
f 37/38/37 34/35/34 38/39/38
f 34/35/34 33/34/33 38/39/38
f 33/34/33 39/40/39 38/39/38
f 35/36/35 39/40/39 33/34/33
f 39/40/39 35/36/35 40/41/40
f 36/37/36 40/41/40 35/36/35
f 40/41/40 36/37/36 41/42/41
f 27/28/27 41/42/41 36/37/36
f 41/42/41 27/28/27 26/27/26
f 26/27/26 42/43/42 41/42/41
f 43/44/43 41/42/41 42/43/42
f 42/43/42 44/45/44 43/44/43
f 45/46/45 43/44/43 44/45/44
f 44/45/44 46/47/46 45/46/45
f 45/46/45 46/47/46 38/39/38
f 47/48/47 45/46/45 38/39/38
f 39/40/39 47/48/47 38/39/38
f 40/41/40 47/48/47 39/40/39
f 47/48/47 40/41/40 43/44/43
f 41/42/41 43/44/43 40/41/40
f 43/44/43 45/46/45 47/48/47
f 48/49/48 49/50/49 38/39/38
f 50/51/50 48/49/48 38/39/38
f 46/47/46 50/51/50 38/39/38
f 51/52/51 50/51/50 46/47/46
f 46/47/46 44/45/44 51/52/51
f 52/53/52 51/52/51 44/45/44
f 44/45/44 42/43/42 52/53/52
f 53/54/53 52/53/52 42/43/42
f 42/43/42 26/27/26 53/54/53
f 24/25/24 53/54/53 26/27/26
f 54/55/54 48/49/48 50/51/50
f 50/51/50 51/52/51 54/55/54
f 55/56/55 54/55/54 51/52/51
f 51/52/51 52/53/52 55/56/55
f 56/57/56 55/56/55 52/53/52
f 52/53/52 53/54/53 56/57/56
f 25/26/25 56/57/56 53/54/53
f 53/54/53 24/25/24 25/26/25
f 25/26/25 14/14/14 13/13/13
f 13/13/13 57/58/57 25/26/25
f 56/57/56 25/26/25 57/58/57
f 57/58/57 58/59/58 56/57/56
f 55/56/55 56/57/56 58/59/58
f 58/59/58 59/60/59 55/56/55
f 54/55/54 55/56/55 59/60/59
f 59/60/59 60/61/60 54/55/54
f 48/49/48 54/55/54 60/61/60
f 60/61/60 49/50/49 48/49/48
f 57/58/57 13/13/13 61/62/61
f 61/62/61 62/63/62 57/58/57
f 58/59/58 57/58/57 62/63/62
f 62/63/62 63/64/63 58/59/58
f 59/60/59 58/59/58 63/64/63
f 63/64/63 64/65/64 59/60/59
f 60/61/60 59/60/59 64/65/64
f 64/65/64 65/66/65 60/61/60
f 49/50/49 60/61/60 65/66/65
f 65/66/65 66/67/66 49/50/49
f 61/62/61 67/68/67 68/69/68
f 68/69/68 69/70/69 61/62/61
f 62/63/62 61/62/61 69/70/69
f 69/70/69 70/71/70 62/63/62
f 63/64/63 62/63/62 70/71/70
f 70/71/70 71/72/71 63/64/63
f 64/65/64 63/64/63 71/72/71
f 71/72/71 72/73/72 64/65/64
f 65/66/65 64/65/64 72/73/72
f 72/73/72 73/74/73 65/66/65
f 70/71/70 69/70/69 74/75/74
f 71/72/71 70/71/70 75/76/75
f 74/75/74 75/76/75 70/71/70
f 75/76/75 74/75/74 76/77/76
f 72/73/72 71/72/71 77/78/77
f 75/76/75 77/78/77 71/72/71
f 77/78/77 75/76/75 78/79/78
f 76/77/76 78/79/78 75/76/75
f 78/79/78 76/77/76 79/80/79
f 73/74/73 72/73/72 80/81/80
f 77/78/77 80/81/80 72/73/72
f 80/81/80 77/78/77 81/82/81
f 78/79/78 81/82/81 77/78/77
f 81/82/81 78/79/78 82/83/82
f 79/80/79 82/83/82 78/79/78
f 82/83/82 79/80/79 83/84/83
f 66/67/66 65/66/65 73/74/73
f 73/74/73 84/85/84 66/67/66
f 84/85/84 73/74/73 85/86/85
f 80/81/80 85/86/85 73/74/73
f 85/86/85 80/81/80 86/87/86
f 81/82/81 86/87/86 80/81/80
f 86/87/86 81/82/81 87/88/87
f 82/83/82 87/88/87 81/82/81
f 87/88/87 82/83/82 20/20/20
f 83/84/83 20/20/20 82/83/82
f 20/20/20 83/84/83 18/22/18
f 49/50/49 66/67/66 38/39/38
f 66/67/66 84/85/84 38/39/38
f 84/85/84 37/38/37 38/39/38
f 85/86/85 37/38/37 84/85/84
f 37/38/37 85/86/85 32/33/32
f 86/87/86 32/33/32 85/86/85
f 32/33/32 86/87/86 30/31/30
f 87/88/87 30/31/30 86/87/86
f 30/31/30 87/88/87 19/19/19
f 20/20/20 19/19/19 87/88/87
f 88/89/88 89/90/89 90/91/90
f 90/91/90 91/92/91 88/89/88
f 92/93/92 89/90/89 93/94/93
f 89/90/89 92/93/92 94/95/94
f 94/95/94 90/91/90 89/90/89
f 90/91/90 94/95/94 95/96/95
f 95/96/95 96/97/96 90/91/90
f 91/92/91 90/91/90 96/97/96
f 96/97/96 97/98/97 91/92/91
f 91/92/91 97/98/97 98/99/98
f 88/89/88 91/92/91 98/99/98
f 99/100/99 88/89/88 98/99/98
f 89/90/89 88/89/88 99/100/99
f 99/100/99 93/94/93 89/90/89
f 93/94/93 99/100/99 100/101/100
f 100/101/100 99/100/99 98/99/98
f 101/102/101 102/103/102 98/99/98
f 103/104/103 101/102/101 98/99/98
f 97/98/97 103/104/103 98/99/98
f 104/105/104 103/104/103 97/98/97
f 97/98/97 96/97/96 104/105/104
f 105/106/105 104/105/104 96/97/96
f 96/97/96 95/96/95 105/106/105
f 106/107/106 105/106/105 95/96/95
f 95/96/95 107/108/107 106/107/106
f 107/108/107 95/96/95 94/95/94
f 105/106/105 106/107/106 108/109/108
f 108/109/108 109/110/109 105/106/105
f 104/105/104 105/106/105 109/110/109
f 109/110/109 110/111/110 104/105/104
f 103/104/103 104/105/104 110/111/110
f 110/111/110 101/102/101 103/104/103
f 106/107/106 111/112/111 68/69/68
f 68/69/68 108/109/108 106/107/106
f 108/109/108 68/69/68 67/68/67
f 67/68/67 112/113/112 108/109/108
f 109/110/109 108/109/108 112/113/112
f 112/113/112 113/114/113 109/110/109
f 110/111/110 109/110/109 113/114/113
f 113/114/113 114/115/114 110/111/110
f 101/102/101 110/111/110 114/115/114
f 114/115/114 102/103/102 101/102/101
f 115/116/115 116/117/116 102/103/102
f 102/103/102 114/115/114 115/116/115
f 1/1/1 115/116/115 114/115/114
f 114/115/114 113/114/113 1/1/1
f 2/2/2 1/1/1 113/114/113
f 113/114/113 112/113/112 2/2/2
f 8/8/8 2/2/2 112/113/112
f 112/113/112 67/68/67 8/8/8
f 13/13/13 8/8/8 67/68/67
f 67/68/67 61/62/61 13/13/13
f 116/117/116 115/116/115 117/118/117
f 117/118/117 118/119/118 116/117/116
f 118/119/118 117/118/117 119/120/119
f 120/121/120 121/122/121 122/123/122
f 123/124/123 122/123/122 121/122/121
f 122/123/122 123/124/123 124/125/124
f 125/126/125 124/125/124 123/124/123
f 124/125/124 125/126/125 119/120/119
f 126/127/126 119/120/119 125/126/125
f 119/120/119 126/127/126 118/119/118
f 118/119/118 126/127/126 98/99/98
f 116/117/116 118/119/118 98/99/98
f 102/103/102 116/117/116 98/99/98
f 94/95/94 127/128/127 107/108/107
f 127/128/127 94/95/94 92/93/92
f 92/93/92 128/129/128 127/128/127
f 128/129/128 92/93/92 129/130/129
f 93/94/93 129/130/129 92/93/92
f 129/130/129 93/94/93 130/131/130
f 100/101/100 130/131/130 93/94/93
f 130/131/130 100/101/100 131/132/131
f 131/132/131 100/101/100 98/99/98
f 126/127/126 131/132/131 98/99/98
f 125/126/125 131/132/131 126/127/126
f 131/132/131 125/126/125 130/131/130
f 123/124/123 130/131/130 125/126/125
f 130/131/130 123/124/123 129/130/129
f 121/122/121 129/130/129 123/124/123
f 129/130/129 121/122/121 128/129/128
f 132/133/132 128/129/128 121/122/121
f 128/129/128 132/133/132 133/134/133
f 133/134/133 127/128/127 128/129/128
f 127/128/127 133/134/133 134/135/134
f 134/135/134 107/108/107 127/128/127
f 107/108/107 134/135/134 111/112/111
f 111/112/111 106/107/106 107/108/107
f 69/70/69 68/69/68 111/112/111
f 111/112/111 74/136/74 69/70/69
f 74/136/74 111/112/111 134/135/134
f 134/135/134 76/137/76 74/136/74
f 76/137/76 134/135/134 133/134/133
f 133/134/133 79/138/79 76/137/76
f 79/138/79 133/134/133 132/133/132
f 132/133/132 83/139/83 79/138/79
f 83/139/83 132/133/132 120/121/120
f 121/122/121 120/121/120 132/133/132
f 115/116/115 1/1/1 4/4/4
f 4/4/4 117/118/117 115/116/115
f 117/118/117 4/4/4 6/6/6
f 6/6/6 119/120/119 117/118/117
f 119/120/119 6/6/6 124/125/124
f 7/7/7 124/125/124 6/6/6
f 124/125/124 7/7/7 122/123/122
f 12/12/12 122/123/122 7/7/7
f 122/123/122 12/12/12 120/121/120
f 18/18/18 120/121/120 12/12/12
f 120/121/120 18/18/18 83/139/83
